ply
format ascii 1.0
comment Created in Blender version 4.5.1 LTS
element vertex 40
property float x
property float y
property float z
property float nx
property float ny
property float nz
element face 76
property list uchar uint vertex_indices
end_header
-23.9875 -24.974304 100.89483 -0.33865103 -0.8643487 -0.37177518
-24.974304 -23.9875 100.89483 -0.8643485 -0.3386471 -0.37177947
-23.9875 -23.9875 100 -0.32429245 -0.32429364 -0.88863266
23.9875 -23.9875 100 0.32429492 -0.32429808 -0.88863015
23.9875 -24.974304 100.89483 0.33865127 -0.864349 -0.3717743
24.974304 -23.9875 100.89483 0.8643476 -0.3386495 -0.3717793
-23.9875 23.9875 100 -0.32429633 0.32429704 -0.88863015
-24.974304 23.9875 100.89483 -0.8643482 0.33865252 -0.37177512
23.9875 23.9875 100 0.32429114 0.32429478 -0.8886328
24.974304 23.9875 100.89483 0.86434966 0.3386506 -0.3717736
-23.9875 24.974304 100.89483 -0.33864555 0.8643496 -0.37177828
23.9875 24.974304 100.89483 0.33864605 0.8643504 -0.37177593
-23.9875 -25 101.93965 -0.38161364 -0.9242525 -0.011337321
-25 -23.9875 101.93965 -0.9242518 -0.3816151 -0.011337811
23.9875 -25 101.93965 0.3816138 -0.92425233 -0.011339219
24.999998 -23.9875 101.93965 0.92425114 -0.38161668 -0.0113372365
-25 23.9875 101.93965 -0.9242516 0.38161564 -0.011337882
24.999998 23.9875 101.93965 0.9242531 0.3816122 -0.011337103
-23.9875 24.999998 101.93965 -0.38161358 0.92425245 -0.011337024
23.9875 24.999998 101.93965 0.3816183 0.92425054 -0.011336871
-23.9875 -25 128.06035 -0.38161746 -0.92425084 0.011338451
-25 -23.9875 128.06035 -0.9242524 -0.38161358 0.011337683
23.9875 -25 128.06035 0.38161805 -0.9242506 0.011337252
24.999998 -23.9875 128.06035 0.9242528 -0.38161293 0.011337089
-25 23.9875 128.06035 -0.9242527 0.38161305 0.011337584
24.999998 23.9875 128.06035 0.9242519 0.38161504 0.011337418
-23.9875 24.999998 128.06035 -0.3816189 0.92425036 0.011336779
23.9875 24.999998 128.06035 0.3816152 0.92425185 0.011336924
-23.9875 -24.974304 129.10518 -0.3386477 -0.86434793 0.37178025
-24.974304 -23.9875 129.10518 -0.86434823 -0.33865115 0.3717764
23.9875 -24.974304 129.10518 0.33864698 -0.86434776 0.37178123
24.974304 -23.9875 129.10518 0.86434805 -0.33865207 0.3717758
-24.974304 23.9875 129.10518 -0.8643479 0.33865225 0.37177595
24.974304 23.9875 129.10518 0.8643485 0.33865115 0.37177587
-23.9875 24.974304 129.10518 -0.33864704 0.86434907 0.37177816
23.9875 24.974304 129.10518 0.33864745 0.8643479 0.37178066
-23.9875 -23.9875 130 -0.32428992 -0.3242937 0.8886336
23.9875 -23.9875 130 0.32429513 -0.3242959 0.88863087
-23.9875 23.9875 130 -0.32429376 0.324297 0.888631
23.9875 23.9875 130 0.3242913 0.3242926 0.8886335
3 0 1 2
3 3 5 4
3 8 6 10
3 15 9 17
3 6 1 7
3 15 5 9
3 8 2 6
3 13 1 0
3 37 31 33
3 7 10 6
3 20 28 29
3 21 13 20
3 8 11 9
3 12 4 14
3 8 10 11
3 13 7 1
3 15 4 5
3 29 21 20
3 11 18 19
3 13 16 7
3 18 10 7
3 29 38 32
3 0 2 3
3 9 5 3
3 36 37 39
3 31 30 22
3 31 23 25
3 29 36 38
3 15 23 22
3 23 31 22
3 19 26 27
3 35 38 39
3 27 26 34
3 24 32 26
3 22 14 15
3 9 3 8
3 25 23 15
3 26 18 16
3 36 28 30
3 19 18 26
3 28 20 22
3 12 14 22
3 25 17 19
3 27 35 33
3 17 9 19
3 11 10 18
3 19 27 25
3 8 3 2
3 28 22 30
3 16 21 24
3 25 15 17
3 13 12 20
3 32 34 26
3 21 32 24
3 12 0 4
3 31 25 33
3 16 24 26
3 21 29 32
3 27 34 35
3 18 7 16
3 36 29 28
3 9 11 19
3 36 30 37
3 31 37 30
3 27 33 25
3 37 33 39
3 12 22 20
3 13 0 12
3 6 2 1
3 36 39 38
3 16 13 21
3 35 34 38
3 15 14 4
3 38 34 32
3 0 3 4
3 35 39 33
