ply
format ascii 1.0
comment Created in Blender version 4.5.1 LTS
element vertex 52
property float x
property float y
property float z
property float nx
property float ny
property float nz
element face 100
property list uchar uint vertex_indices
end_header
-26.430923 -89.91919 131.33571 -0.294832 -0.8399793 -0.45553142
-26.895977 -89.55334 131.33571 -0.8021241 -0.37817737 -0.46214595
-26.430923 -89.55334 131 -0.27761856 -0.3326922 -0.9012457
26.430923 -89.55334 131 0.27762392 -0.33271 -0.9012375
26.430923 -89.91919 131.33571 0.28566527 -0.83994913 -0.46139008
26.895977 -89.55334 131.33571 0.8032208 -0.36868212 -0.4678781
-26.895977 -88.206665 131.33571 -0.8207334 -0.0072544618 -0.5712654
26.895977 -88.206665 131.33571 0.82073706 -0.0072544734 -0.57126015
-26.430923 89.55334 131 -0.27762774 0.3326897 -0.90124387
-26.895977 89.55334 131.33571 -0.7976659 0.37556106 -0.4718932
26.430923 89.55334 131 0.2776245 0.33269235 -0.9012439
26.895977 89.55334 131.33571 0.7965026 0.38502768 -0.46619454
-26.430923 89.9192 131.33571 -0.2856717 0.8399587 -0.46136865
26.430923 89.9192 131.33571 0.2948306 0.83998716 -0.45551813
-26.430923 -90 131.69643 -0.33726287 -0.93590444 -0.10166988
-26.953882 -89.55334 131.69643 -0.9017211 -0.42436835 -0.08252652
26.430923 -90 131.69643 0.33210286 -0.93828195 -0.09661647
26.95388 -89.55334 131.69643 0.9045607 -0.41931728 -0.077092394
-27 -88.206665 131.69643 -0.9900508 -0.016920902 -0.13968936
26.999998 -88.206665 131.69643 0.9900511 -0.01692138 -0.1396871
-27 88.206665 131.69643 -0.99083996 0.010086771 -0.13466455
26.999998 88.206665 131.69643 0.9908403 0.010085621 -0.13466212
-26.953882 89.55334 131.69643 -0.9020837 0.4256791 -0.07100908
26.95388 89.55334 131.69643 0.8992463 0.4307203 -0.07639568
-26.430923 89.99999 131.69643 -0.3320977 0.938287 -0.096585624
26.430923 89.99999 131.69643 0.33725545 0.9359078 -0.101663895
-26.430923 -90 135.30357 -0.33210087 -0.9382839 0.09660408
-26.953882 -89.55334 135.30357 -0.9020863 -0.42567313 0.071012005
26.430923 -90 135.30357 0.3372636 -0.9359027 0.10168287
26.95388 -89.55334 135.30357 0.8992458 -0.43072012 0.07640139
-27 -88.206665 135.30357 -0.99084 -0.010086804 0.13466358
26.999998 -88.206665 135.30357 0.9908408 -0.010085981 0.13465814
-27 88.206665 135.30357 -0.9900502 0.016921364 0.13969347
26.999998 88.206665 135.30357 0.99005085 0.016922057 0.13968942
-26.953882 89.55334 135.30357 -0.9017196 0.42437235 0.08252198
26.95388 89.55334 135.30357 0.9045561 0.41932657 0.077094086
-26.430923 89.99999 135.30357 -0.33725727 0.9359072 0.10166339
26.430923 89.99999 135.30357 0.3321008 0.93828595 0.09658524
-26.430923 -89.91919 135.66429 -0.28566658 -0.83995515 0.46137834
-26.895977 -89.55334 135.66429 -0.79766905 -0.37555596 0.4718919
26.430923 -89.91919 135.66429 0.29483128 -0.8399735 0.45554274
26.895977 -89.55334 135.66429 0.796505 -0.38502875 0.4661898
-26.895977 88.206665 135.66429 -0.8207204 0.0072549246 0.571284
26.895977 88.206665 135.66429 0.82071984 0.0072549526 0.5712848
-26.895977 89.55334 135.66429 -0.80212814 0.37817615 0.4621399
26.895977 89.55334 135.66429 0.8032222 0.36868602 0.46787283
-26.430923 89.9192 135.66429 -0.29483035 0.8399838 0.4555244
26.430923 89.9192 135.66429 0.28567144 0.8399624 0.46136224
-26.430923 -89.55334 136 -0.27763158 -0.33270517 0.90123695
26.430923 -89.55334 136 0.27762684 -0.3326875 0.901245
-26.430923 89.55334 136 -0.277621 0.3326907 0.90124553
26.430923 89.55334 136 0.27762443 0.33270192 0.90124035
3 0 1 2
3 3 5 4
3 3 8 10
3 24 34 36
3 18 27 30
3 48 40 49
3 46 51 47
3 16 29 28
3 0 3 4
3 9 12 8
3 10 12 13
3 24 22 34
3 3 2 8
3 46 50 51
3 10 13 11
3 14 15 0
3 0 15 1
3 4 5 16
3 16 5 17
3 15 6 1
3 18 6 15
3 7 17 5
3 7 19 17
3 21 7 11
3 2 1 6
3 22 9 20
3 11 23 21
3 22 24 9
3 9 24 12
3 16 17 29
3 28 26 14
3 25 24 36
3 51 49 43
3 15 14 26
3 49 41 43
3 29 17 19
3 22 20 32
3 11 13 23
3 23 13 25
3 22 32 34
3 21 35 33
3 29 19 31
3 31 21 33
3 7 3 10
3 25 36 37
3 38 39 26
3 26 39 27
3 26 40 38
3 28 29 40
3 40 29 41
3 39 30 27
3 31 41 29
3 30 42 32
3 43 31 33
3 42 34 32
3 44 34 42
3 35 43 33
3 35 45 43
3 44 46 34
3 34 46 36
3 13 24 25
3 0 2 3
3 31 19 21
3 10 8 12
3 51 50 48
3 10 11 7
3 35 23 25
3 30 39 42
3 43 41 31
3 48 50 42
3 18 30 32
3 13 12 24
3 6 18 20
3 42 39 48
3 37 36 46
3 26 28 40
3 14 0 4
3 21 19 7
3 7 5 3
3 8 2 6
3 9 8 6
3 21 23 35
3 37 46 47
3 48 38 40
3 35 37 45
3 45 37 47
3 48 39 38
3 41 49 40
3 50 44 42
3 28 14 16
3 6 20 9
3 51 48 49
3 14 4 16
3 18 32 20
3 35 25 37
3 18 15 27
3 43 45 51
3 15 26 27
3 50 46 44
3 47 51 45
