ply
format ascii 1.0
comment Created in Blender version 4.5.1 LTS
element vertex 222
property float x
property float y
property float z
property float nx
property float ny
property float nz
element face 440
property list uchar uint vertex_indices
end_header
-23.37963 -176.88284 138.34285 -0.39024645 -0.85034 -0.35302907
-25 -174.97041 138.34285 -0.8932808 -0.31051248 -0.32500997
-23.37963 -174.97041 136.5464 -0.37482724 -0.32578462 -0.8679683
-21.50926 -174.97041 136.5 -0.012224655 -0.365627 -0.9306813
-21.50926 -176.95131 138.34285 -0.016651858 -0.9131089 -0.40737584
21.50926 -174.97041 136.5 0.012224435 -0.36562243 -0.9306831
21.50926 -176.95131 138.34285 0.019789288 -0.9142637 -0.40463617
23.37963 -174.97041 136.5464 0.37482864 -0.32578364 -0.8679681
23.37963 -176.88284 138.34285 0.3876378 -0.85273093 -0.35012418
25 -174.97041 138.34285 0.89328116 -0.3105231 -0.32499894
-23.37963 -49.02959 136.5464 -0.37483457 0.32578632 -0.8679645
-25 -49.02959 138.34285 -0.89328194 0.3105122 -0.32500702
-21.50926 -49.02959 136.5 -0.012228955 0.3656214 -0.93068343
21.50926 -49.02959 136.5 0.012229064 0.36562806 -0.93068075
23.37963 -49.02959 136.5464 0.37483317 0.32578728 -0.8679647
25 -49.02959 138.34285 0.8932804 0.31052327 -0.3250009
-23.37963 -47.117157 138.34285 -0.39024672 0.85034025 -0.35302866
-21.50926 -47.048695 138.34285 -0.01665138 0.9131066 -0.40738073
21.50926 -47.048695 138.34285 0.01978926 0.9142642 -0.40463513
23.37963 -47.117157 138.34285 0.3876376 0.8527313 -0.3501238
-21.50926 -177 140.61269 -0.028420316 -0.9995663 -0.007715235
21.50926 -177 140.61269 0.031264916 -0.9994537 -0.010718767
23.37963 -176.88284 140.61269 0.4460763 -0.89498895 -0.003268038
-21.50926 -46.999996 140.61269 -0.028420983 0.99956626 -0.0077182073
21.50926 -46.999996 140.61269 0.031265937 0.9994537 -0.01071687
23.37963 -47.117157 140.61269 0.44607738 0.8949885 -0.0032680382
-23.37963 -176.88284 147.42221 -0.44555798 -0.8952444 0.003935459
-21.50926 -177 147.42221 -0.03126265 -0.9994281 0.012898059
21.50926 -177 147.42221 0.027839575 -0.99956924 0.0092892675
-23.37963 -47.117157 147.42221 -0.44555855 0.8952442 0.0039360067
-21.50926 -46.999996 147.42221 -0.031263664 0.99942803 0.012899554
21.50926 -46.999996 147.42221 0.027840061 0.9995693 0.00929091
-23.37963 -176.88284 149.69205 -0.4007944 -0.9006682 0.16781195
-25 -174.97041 149.69205 -0.93645513 -0.335378 0.1028272
-21.50926 -176.94139 149.69205 -0.018760014 -0.9760103 0.21691456
21.50926 -176.94139 149.69205 0.012270247 -0.9760088 0.21738529
23.37963 -176.88284 149.69205 0.4151029 -0.8920413 0.17875078
25 -174.97041 149.69205 0.93101853 -0.34591147 0.116404
-25 -49.02959 149.69205 -0.931016 0.34591937 0.1164007
25 -49.02959 149.69205 0.9364587 0.3353679 0.10282842
-23.37963 -47.117157 149.69205 -0.409383 0.8946704 0.17880292
-21.50926 -47.058617 149.69205 -0.018757073 0.97601 0.21691594
21.50926 -47.058617 149.69205 0.012267797 0.97600824 0.21738766
23.37963 -47.117157 149.69205 0.40653968 0.8980884 0.16781785
-23.37963 -175.92874 151.9619 -0.4100098 -0.9117923 0.02295339
-24.485828 -174.97041 151.9619 -0.9079808 -0.41819105 0.026212536
-21.50926 -175.92874 151.9619 -0.00324848 -0.99989885 -0.013852794
21.50926 -175.92874 151.9619 0.006428145 -0.99997 -0.0043280423
23.37963 -175.92874 151.9619 0.40690985 -0.9130985 -0.025992056
24.485828 -174.97041 151.9619 0.9079808 -0.41819093 -0.026213635
-24.485828 -49.02959 151.9619 -0.90798056 0.41819167 -0.02621417
24.485828 -49.02959 151.9619 0.90798014 0.4181926 0.026212625
-23.37963 -48.071266 151.9619 -0.40986323 0.9114675 -0.035204135
-21.50926 -48.071266 151.9619 -0.0032472687 0.9998988 -0.013852827
21.50926 -48.071266 151.9619 0.0064281793 0.99997 -0.004331019
23.37963 -48.071266 151.9619 0.4068342 0.9129356 0.032167315
-23.37963 -176.88284 154.23174 -0.42598587 -0.8878076 -0.17416586
-25 -174.97041 154.23174 -0.9310173 -0.3459149 -0.1164035
-21.50926 -177 154.23174 -0.024604054 -0.9770232 -0.21170868
21.50926 -177 154.23174 0.03040285 -0.9755446 -0.21768902
23.37963 -176.88284 154.23174 0.41212666 -0.89494 -0.17097957
25 -174.97041 154.23174 0.93645644 -0.33537403 -0.10282908
-25 -49.02959 154.23174 -0.93645626 0.33537456 -0.10282832
25 -49.02959 154.23174 0.9310169 0.3459159 -0.11640354
-23.37963 -47.117157 154.23174 -0.41744938 0.8938999 -0.16333757
-21.50926 -46.999996 154.23174 -0.024604682 0.97702277 -0.21171014
21.50926 -46.999996 154.23174 0.030403338 0.97554433 -0.21768999
23.37963 -47.117157 154.23174 0.42065734 0.88879925 -0.18188831
-23.37963 -176.88284 172.39047 -0.4474342 -0.89431566 0.0015119184
-21.50926 -177 172.39047 -0.031270176 -0.99949867 0.0049683023
21.50926 -177 172.39047 0.029950408 -0.99954504 0.0035762335
-23.37963 -47.117157 172.39047 -0.44743448 0.89431554 0.0015130083
-21.50926 -46.999996 172.39047 -0.031271182 0.9994986 0.004968858
21.50926 -46.999996 172.39047 0.029951274 0.99954504 0.0035775842
-23.37963 -176.88284 174.66031 -0.4026775 -0.8911876 0.20889103
-25 -174.97041 174.66031 -0.932767 -0.33152387 0.14155452
-21.50926 -176.97743 174.66031 -0.025673259 -0.96512777 0.26051757
21.50926 -176.97743 174.66031 0.01990458 -0.96610796 0.2573698
23.37963 -176.88284 174.66031 0.41606945 -0.883472 0.21532212
25 -174.97041 174.66031 0.92679405 -0.3418415 0.1555544
-25 -49.02959 174.66031 -0.92679316 0.34184548 0.15555125
25 -49.02959 174.66031 0.9327693 0.3315176 0.14155461
-23.37963 -47.117157 174.66031 -0.410909 0.884786 0.21979006
-21.50926 -47.022568 174.66031 -0.025674062 0.965129 0.26051268
21.50926 -47.022568 174.66031 0.01990485 0.966107 0.25737366
23.37963 -47.117157 174.66031 0.40784723 0.88985556 0.20449384
-23.37963 -175.67111 176.93016 -0.39710104 -0.91714704 0.033943217
-24.276169 -174.97041 176.93016 -0.8938687 -0.44674265 0.03768206
-21.50926 -175.67111 176.93016 -0.005056704 -0.999951 -0.008516533
21.50926 -175.67111 176.93016 0.006233406 -0.9999781 0.00220405
23.37963 -175.67111 176.93016 0.3959418 -0.9176087 -0.034991544
24.276169 -174.97041 176.93016 0.89386994 -0.44673988 -0.037683867
-24.276169 -49.02959 176.93016 -0.89387137 0.44673744 -0.0376808
24.276169 -49.02959 176.93016 0.89386994 0.4467403 0.037679095
-23.37963 -48.328884 176.93016 -0.39693403 0.9167419 -0.045032095
-21.50926 -48.328884 176.93016 -0.0050568883 0.999951 -0.008515028
21.50926 -48.328884 176.93016 0.0062334444 0.99997824 0.0021996938
23.37963 -48.328884 176.93016 0.39580238 0.9172822 0.043975495
-23.37963 -176.88284 179.2 -0.42021495 -0.88193095 -0.21358187
-25 -174.97041 179.2 -0.92679507 -0.34183872 -0.15555482
-21.50926 -177 179.2 -0.0246771 -0.96666646 -0.25484693
21.50926 -177 179.2 0.03005704 -0.96504885 -0.2603408
23.37963 -176.88284 179.2 0.40705168 -0.88892823 -0.21003719
25 -174.97041 179.2 0.9327691 -0.3315172 -0.14155617
-25 -49.02959 179.2 -0.9327688 0.33151838 -0.14155518
25 -49.02959 179.2 0.92679614 0.34183502 -0.15555605
-23.37963 -47.117157 179.2 -0.4119965 0.88833237 -0.20279169
-21.50926 -46.999996 179.2 -0.024677422 0.96666616 -0.2548483
21.50926 -46.999996 179.2 0.030057637 0.9650493 -0.26033902
23.37963 -47.117157 179.2 0.4152662 0.88247234 -0.2208995
-23.37963 -176.88284 188.27937 -0.4350204 -0.89936507 0.043587133
-25 -174.97041 188.27937 -0.9392044 -0.3429237 0.017278198
-21.50926 -177 188.27937 -0.03115572 -0.9971135 0.06923853
21.50926 -177 188.27937 0.02443353 -0.9977667 0.0621665
23.37963 -176.88284 188.27937 0.44405898 -0.89514416 0.039097965
25 -174.97041 188.27937 0.93793356 -0.34618032 0.020971412
-25 -49.02959 188.27937 -0.93793344 0.346181 0.020970812
25 -49.02959 188.27937 0.9392026 0.34292862 0.017276835
-23.37963 -47.117157 188.27937 -0.43798804 0.8977428 0.04716362
-21.50926 -46.999996 188.27937 -0.03115686 0.9971133 0.069242544
21.50926 -46.999996 188.27937 0.024434038 0.9977666 0.062167875
23.37963 -47.117157 188.27937 0.44108748 0.8967599 0.03554552
-23.37963 -176.6828 190.54921 -0.40852147 -0.91113865 0.054191265
-24.916193 -174.97041 190.54921 -0.93456167 -0.35466275 0.028441248
-21.50926 -176.6828 190.54921 -0.0067964126 -0.99685293 0.078981124
23.37963 -176.6828 190.54921 0.41971782 -0.9057373 0.058966734
24.916193 -174.97041 190.54921 0.9327499 -0.35959378 0.025887063
-24.916193 -49.02959 190.54921 -0.93274915 0.35959554 0.02588939
24.916193 -49.02959 190.54921 0.9345613 0.3546636 0.028440343
-23.37963 -47.31721 190.54921 -0.41346973 0.9090692 0.051343452
-21.50926 -47.31721 190.54921 -0.0067965966 0.99685264 0.07898624
23.37963 -47.31721 190.54921 0.41477472 0.90782386 0.061788287
-23.37963 -176.60646 192.81905 -0.4211093 -0.9060462 -0.041802507
-24.881542 -174.97041 192.81905 -0.931207 -0.36415166 -0.015719235
21.50926 -176.60646 192.81905 0.006768525 -0.9980617 -0.06186391
23.37963 -176.60646 192.81905 0.41086152 -0.910722 -0.042170156
24.881544 -174.97041 192.81905 0.9325323 -0.36035258 -0.023014916
-24.881542 -49.02959 192.81905 -0.9325324 0.36035234 -0.023014639
24.881544 -49.02959 192.81905 0.93120694 0.36415204 -0.015717257
-23.37963 -47.393547 192.81905 -0.41712275 0.9074927 -0.049657453
21.50926 -47.393547 192.81905 0.0067688962 0.9980615 -0.0618674
23.37963 -47.393547 192.81905 0.41483375 0.9092512 -0.03428114
-23.37963 -176.88284 195.0889 -0.44224986 -0.89527696 -0.053797755
-25 -174.97041 195.0889 -0.93749774 -0.3467457 -0.029418917
-21.50926 -177 195.0889 -0.024443839 -0.9966115 -0.07853781
21.50926 -177 195.0889 0.03110656 -0.99584854 -0.085545614
23.37963 -176.88284 195.0889 0.43227246 -0.8999315 -0.057129953
25 -174.97041 195.0889 0.9392527 -0.3423595 -0.024382459
-25 -49.02959 195.0889 -0.93925375 0.34235647 -0.024380723
25 -49.02959 195.0889 0.9374984 0.34674418 -0.029418163
-23.37963 -47.117157 195.0889 -0.43830466 0.8974866 -0.049058974
-21.50926 -46.999996 195.0889 -0.024444785 0.9966109 -0.07854437
21.50926 -46.999996 195.0889 0.031107899 0.99584866 -0.08554524
23.37963 -47.117157 195.0889 0.43621737 0.8977098 -0.061900195
-23.37963 -176.88284 204.16826 -0.4121227 -0.89494157 0.17098117
-25 -174.97041 204.16826 -0.9364574 -0.33537155 0.10282814
-21.50926 -177 204.16826 -0.030402502 -0.9755446 0.21768896
21.50926 -177 204.16826 0.024604298 -0.97702366 0.2117064
23.37963 -176.88284 204.16826 0.42599097 -0.8878051 0.17416605
25 -174.97041 204.16826 0.9310197 -0.34590867 0.116402954
-25 -49.02959 204.16826 -0.93101907 0.34591028 0.11640355
25 -49.02959 204.16826 0.93645704 0.33537263 0.10282757
-23.37963 -47.117157 204.16826 -0.42066166 0.88879716 0.18188877
-21.50926 -46.999996 204.16826 -0.030402912 0.9755453 0.21768612
21.50926 -46.999996 204.16826 0.02460448 0.9770223 0.21171227
23.37963 -47.117157 204.16826 0.41744506 0.8939017 0.16333844
-23.37963 -175.92874 206.43811 -0.40690905 -0.9130989 0.025990317
-24.485828 -174.97041 206.43811 -0.90798044 -0.4181918 0.026212836
-21.50926 -175.92874 206.43811 -0.006428215 -0.9999701 0.0043294393
21.50926 -175.92874 206.43811 0.003247279 -0.99989897 0.013846174
23.37963 -175.92874 206.43811 0.41000745 -0.91179323 -0.022956774
24.485828 -174.97041 206.43811 0.9079806 -0.41819158 -0.026214685
-24.485828 -49.02959 206.43811 -0.9079798 0.41819322 -0.026214737
24.485828 -49.02959 206.43811 0.9079802 0.41819257 0.026213367
-23.37963 -48.071266 206.43811 -0.40683314 0.91293585 -0.03217007
-21.50926 -48.071266 206.43811 -0.006428113 0.9999701 0.0043285494
21.50926 -48.071266 206.43811 0.003247301 0.99989885 0.013850201
23.37963 -48.071266 206.43811 0.4098625 0.9114679 0.03520207
-23.37963 -176.88284 208.70795 -0.41510192 -0.8920418 -0.17875154
-25 -174.97041 208.70795 -0.93101937 -0.34590948 -0.1164034
-21.50926 -176.94139 208.70795 -0.012268604 -0.9760092 -0.21738349
21.50926 -176.94139 208.70795 0.018757453 -0.9760094 -0.21691893
23.37963 -176.88284 208.70795 0.4007914 -0.9006693 -0.16781296
25 -174.97041 208.70795 0.9364552 -0.33537754 -0.10282805
-25 -49.02959 208.70795 -0.93645835 0.3353683 -0.10282964
25 -49.02959 208.70795 0.9310165 0.34591815 -0.11640046
-23.37963 -47.117157 208.70795 -0.4065397 0.89808816 -0.16781893
-21.50926 -47.058617 208.70795 -0.012267586 0.97600806 -0.21738897
21.50926 -47.058617 208.70795 0.01875706 0.9760098 -0.21691722
23.37963 -47.117157 208.70795 0.4093834 0.89467007 -0.17880382
-21.50926 -177 210.97778 -0.02783961 -0.99956924 -0.0092892675
21.50926 -177 210.97778 0.03126272 -0.9994281 -0.012898058
23.37963 -176.88284 210.97778 0.44555765 -0.8952446 -0.003935458
-21.50926 -46.999996 210.97778 -0.02784001 0.9995693 -0.00929091
21.50926 -46.999996 210.97778 0.03126374 0.99942803 -0.012899554
23.37963 -47.117157 210.97778 0.44555825 0.8952444 -0.003936006
-23.37963 -176.88284 217.78732 -0.4460754 -0.89498943 0.0032680365
-21.50926 -177 217.78732 -0.03126488 -0.9994537 0.010718765
21.50926 -177 217.78732 0.028420335 -0.9995663 0.007715235
-23.37963 -47.117157 217.78732 -0.44607592 0.8949892 0.0032680363
-21.50926 -46.999996 217.78732 -0.031265825 0.9994537 0.01071687
21.50926 -46.999996 217.78732 0.028420879 0.9995663 0.007718209
-23.37963 -176.88284 220.05716 -0.3876343 -0.85273266 0.35012373
-25 -174.97041 220.05716 -0.89328057 -0.31052315 0.32500035
-21.50926 -176.95131 220.05716 -0.019788425 -0.9142637 0.40463614
21.50926 -176.95131 220.05716 0.01665117 -0.9131088 0.40737578
23.37963 -176.88284 220.05716 0.39024422 -0.85034126 0.35302886
25 -174.97041 220.05716 0.89328235 -0.31051168 0.32500643
-25 -49.02959 220.05716 -0.8932817 0.31052306 0.32499745
25 -49.02959 220.05716 0.89328146 0.31051207 0.32500845
-23.37963 -47.117157 220.05716 -0.38763425 0.8527329 0.35012332
-21.50926 -47.048695 220.05716 -0.01978673 0.9142633 0.4046371
21.50926 -47.048695 220.05716 0.016648944 0.9131075 0.4073788
23.37963 -47.117157 220.05716 0.39024457 0.8503413 0.3530284
-23.37963 -174.97041 221.8536 -0.37482637 -0.3257843 0.86796874
-21.50926 -174.97041 221.90001 -0.012224736 -0.36562732 0.93068117
21.50926 -174.97041 221.90001 0.012220238 -0.36562136 0.93068343
23.37963 -174.97041 221.8536 0.37482414 -0.32578468 0.86796963
-23.37963 -49.02959 221.8536 -0.37482828 0.32578677 0.867967
-21.50926 -49.02959 221.90001 -0.012221656 0.36562133 0.93068355
21.50926 -49.02959 221.90001 0.01222616 0.3656288 0.93068045
23.37963 -49.02959 221.8536 0.3748305 0.32578638 0.86796623
3 0 1 2
3 220 221 213
3 4 3 5
3 220 213 212
3 12 3 2
3 7 9 8
3 4 5 6
3 38 40 29
3 80 82 71
3 62 75 80
3 169 168 156
3 130 129 139
3 96 97 84
3 220 211 219
3 195 194 201
3 142 144 156
3 60 61 79
3 106 104 116
3 12 2 10
3 58 44 46
3 7 13 14
3 25 43 39
3 193 186 199
3 188 193 194
3 169 181 180
3 98 100 112
3 23 30 31
3 76 77 89
3 151 162 163
3 215 205 216
3 201 200 211
3 140 141 131
3 47 46 34
3 79 61 63
3 10 1 11
3 16 17 12
3 11 33 38
3 61 51 63
3 11 16 10
3 215 202 204
3 188 187 193
3 111 127 116
3 216 206 217
3 62 80 71
3 14 19 15
3 20 0 4
3 22 6 8
3 22 21 6
3 65 66 54
3 176 177 164
3 75 87 92
3 16 23 17
3 18 23 24
3 18 25 19
3 24 25 18
3 67 66 73
3 39 9 15
3 57 56 68
3 66 65 72
3 29 11 38
3 31 30 41
3 75 57 68
3 199 186 184
3 20 26 0
3 102 115 114
3 28 22 36
3 15 7 14
3 23 29 30
3 25 31 43
3 95 94 107
3 37 36 22
3 29 16 11
3 20 6 21
3 100 113 112
3 1 0 26
3 34 26 27
3 34 32 26
3 36 35 28
3 56 58 69
3 147 136 138
3 66 72 73
3 29 41 30
3 40 41 29
3 124 112 113
3 42 43 31
3 44 45 32
3 32 45 33
3 46 32 34
3 46 44 32
3 196 178 190
3 48 35 36
3 36 37 48
3 48 37 49
3 13 17 18
3 193 200 201
3 148 143 155
3 101 102 114
3 98 110 111
3 105 109 121
3 115 103 105
3 134 132 124
3 49 39 51
3 132 122 124
3 191 198 197
3 198 191 192
3 33 50 38
3 150 148 160
3 219 211 210
3 47 59 58
3 50 52 38
3 38 52 40
3 40 53 41
3 52 53 40
3 54 42 53
3 179 208 184
3 42 55 43
3 39 43 51
3 51 43 55
3 56 57 44
3 44 57 45
3 58 56 44
3 60 47 48
3 60 59 47
3 48 49 60
3 60 49 61
3 33 45 50
3 136 126 128
3 87 99 104
3 69 58 59
3 213 209 195
3 150 160 162
3 62 64 50
3 50 64 52
3 64 65 52
3 99 111 116
3 27 20 21
3 54 67 55
3 66 67 54
3 51 55 63
3 63 55 67
3 79 63 81
3 133 148 137
3 196 190 197
3 146 147 159
3 65 64 71
3 146 159 158
3 102 103 115
3 60 79 78
3 149 165 161
3 184 208 199
3 195 201 213
3 65 71 72
3 67 73 85
3 148 155 160
3 77 90 89
3 35 48 47
3 145 146 158
3 63 85 81
3 96 95 107
3 107 120 108
3 100 86 88
3 69 59 70
3 203 214 218
3 193 201 194
3 156 144 145
3 32 33 26
3 214 219 218
3 151 163 164
3 74 75 68
3 70 60 78
3 183 173 185
3 84 83 95
3 124 125 134
3 76 68 69
3 76 74 68
3 78 77 70
3 215 216 220
3 73 83 84
3 8 9 22
3 71 83 72
3 82 83 71
3 133 143 148
3 84 85 73
3 86 87 74
3 74 87 75
3 88 74 76
3 88 86 74
3 73 72 83
3 190 180 181
3 75 92 80
3 103 91 93
3 90 77 78
3 78 79 90
3 90 79 91
3 92 94 80
3 80 94 82
3 82 95 83
3 94 95 82
3 84 97 85
3 81 85 93
3 93 85 97
3 98 99 86
3 86 99 87
3 100 98 86
3 102 89 90
3 102 101 89
3 90 91 102
3 102 91 103
3 76 69 70
3 103 93 105
3 31 41 42
3 104 106 92
3 92 106 94
3 106 107 94
3 96 109 97
3 108 109 96
3 93 97 105
3 105 97 109
3 63 67 85
3 98 112 110
3 120 119 130
3 147 138 149
3 164 163 175
3 47 34 35
3 45 57 62
3 191 197 190
3 91 79 81
3 99 116 104
3 115 105 117
3 105 121 117
3 98 111 99
3 76 70 77
3 11 1 33
3 107 119 120
3 70 59 60
3 101 114 113
3 126 115 117
3 106 116 118
3 126 135 125
3 127 129 116
3 122 123 110
3 110 123 111
3 124 110 112
3 124 122 110
3 125 113 114
3 114 115 125
3 16 12 10
3 126 117 128
3 155 167 172
3 107 106 118
3 171 159 161
3 156 157 169
3 13 12 17
3 215 220 219
3 187 188 176
3 126 125 115
3 116 129 118
3 118 130 119
3 129 130 118
3 0 2 3
3 209 185 195
3 8 6 5
3 53 52 65
3 120 131 121
3 34 27 28
3 117 121 128
3 128 121 131
3 132 133 122
3 122 133 123
3 120 130 131
3 151 150 162
3 135 126 136
3 34 28 35
3 123 133 137
3 124 113 125
3 9 37 22
3 137 139 127
3 215 204 205
3 10 2 1
3 143 154 155
3 140 130 139
3 23 16 29
3 215 214 202
3 61 49 51
3 216 205 206
3 111 123 127
3 18 17 23
3 58 46 47
3 128 131 138
3 138 131 141
3 142 143 132
3 132 143 133
3 144 142 132
3 136 128 138
3 91 81 93
3 123 137 127
3 146 134 135
3 146 145 134
3 135 136 146
3 146 136 147
3 89 88 76
3 207 183 185
3 148 150 137
3 137 150 139
3 28 21 22
3 150 151 139
3 25 24 31
3 140 151 152
3 15 9 7
3 20 27 26
3 144 134 145
3 140 153 141
3 152 153 140
3 138 141 149
3 149 141 153
3 140 139 151
3 45 62 50
3 159 147 149
3 159 149 161
3 151 164 152
3 54 55 42
3 142 156 154
3 145 158 157
3 15 19 25
3 39 37 9
3 125 135 134
3 193 199 200
3 100 88 89
3 143 142 154
3 166 167 154
3 154 167 155
3 168 154 156
3 168 166 154
3 157 170 169
3 42 41 53
3 170 157 158
3 158 159 170
3 170 159 171
3 107 118 119
3 49 37 39
3 183 171 173
3 171 161 173
3 20 4 6
3 167 179 184
3 175 174 187
3 56 69 68
3 207 206 192
3 203 179 196
3 192 182 183
3 202 203 196
3 155 172 160
3 13 5 3
3 172 174 160
3 160 174 162
3 162 175 163
3 174 175 162
3 176 164 175
3 23 31 24
3 164 177 165
3 161 165 173
3 173 165 177
3 178 179 166
3 166 179 167
3 180 178 166
3 180 168 169
3 182 169 170
3 182 181 169
3 170 171 182
3 182 171 183
3 156 145 157
3 100 101 113
3 33 1 26
3 108 121 109
3 184 186 172
3 172 186 174
3 186 187 174
3 176 175 187
3 176 189 177
3 188 189 176
3 173 177 185
3 185 177 189
3 179 178 196
3 190 178 180
3 190 181 191
3 192 181 182
3 192 191 181
3 192 183 207
3 186 193 187
3 188 195 189
3 194 195 188
3 13 3 12
3 198 192 206
3 179 203 208
3 207 185 209
3 204 198 205
3 180 166 168
3 214 215 219
3 153 152 164
3 107 108 96
3 204 196 197
3 204 202 196
3 96 84 95
3 206 205 198
3 208 210 199
3 199 211 200
3 210 211 199
3 201 211 212
3 212 213 201
3 185 189 195
3 214 203 202
3 8 5 7
3 7 5 13
3 0 3 4
3 71 64 62
3 207 217 206
3 167 184 172
3 89 101 100
3 87 104 92
3 39 15 25
3 153 164 165
3 54 53 65
3 108 120 121
3 144 132 134
3 27 21 28
3 127 139 129
3 216 221 220
3 19 14 13
3 217 207 209
3 216 217 221
3 217 209 221
3 140 131 130
3 203 218 208
3 204 197 198
3 218 210 208
3 19 13 18
3 62 57 75
3 149 153 165
3 219 210 218
3 220 212 211
3 213 221 209
