ply
format ascii 1.0
comment Created in Blender version 4.5.1 LTS
element vertex 40
property float x
property float y
property float z
property float nx
property float ny
property float nz
element face 76
property list uchar uint vertex_indices
end_header
-36.66674 -32.9193 138.14124 -0.331483 -0.8416028 -0.42640793
-37.601547 -31.9968 138.14124 -0.8363724 -0.33719805 -0.43217903
-36.66674 -31.9968 137.4 -0.29981467 -0.30285397 -0.90464956
36.66674 -31.9968 137.4 0.29981726 -0.3028585 -0.90464705
36.66674 -32.9193 138.14124 0.33148274 -0.84160095 -0.42641184
37.601547 -31.9968 138.14124 0.8363705 -0.33719778 -0.4321829
-36.66674 31.9968 137.4 -0.29981792 0.3028588 -0.9046469
-37.601547 31.9968 138.14124 -0.8363715 0.33719793 -0.43218094
36.66674 31.9968 137.4 0.29981405 0.3028537 -0.90464973
37.601547 31.9968 138.14124 0.83637124 0.3371979 -0.4321815
-36.66674 32.9193 138.14124 -0.331483 0.8416028 -0.426408
36.66674 32.9193 138.14124 0.33148274 0.841601 -0.42641184
-36.66674 -33 138.96848 -0.3739885 -0.92632735 -0.045279674
-37.691788 -31.9968 138.96848 -0.9225636 -0.38263315 -0.0496837
36.66674 -33 138.96848 0.3739861 -0.9263282 -0.04528428
37.69179 -31.9968 138.96848 0.92256457 -0.3826303 -0.049686346
-37.691788 31.9968 138.96848 -0.9225655 0.38262853 -0.049683888
37.69179 31.9968 138.96848 0.9225631 0.38263384 -0.04968693
-36.66674 33 138.96848 -0.37398955 0.92632693 -0.045279663
36.66674 33 138.96848 0.3739861 0.9263282 -0.04528439
-36.66674 -33 153.03152 -0.3739865 -0.926328 0.04528364
-37.691788 -31.9968 153.03152 -0.9225654 -0.3826287 0.049682498
36.66674 -33 153.03152 0.37398782 -0.92632765 0.04528024
37.69179 -31.9968 153.03152 0.9225639 -0.38263205 0.049686745
-37.691788 31.9968 153.03152 -0.92256343 0.38263336 0.049684014
37.69179 31.9968 153.03152 0.9225654 0.38262847 0.04968571
-36.66674 33 153.03152 -0.3739854 0.92632836 0.045283876
36.66674 33 153.03152 0.37398785 0.92632765 0.045280356
-36.66674 -32.9193 153.85876 -0.33148175 -0.84160185 0.42641085
-37.601547 -31.9968 153.85876 -0.83637255 -0.33719802 0.43217883
36.66674 -32.9193 153.85876 0.33148208 -0.8416037 0.42640704
37.601547 -31.9968 153.85876 0.8363689 -0.33719867 0.4321853
-37.601547 31.9968 153.85876 -0.8363699 0.33719876 0.43218333
37.601547 31.9968 153.85876 0.83637136 0.33719784 0.43218124
-36.66674 32.9193 153.85876 -0.33148107 0.8416022 0.42641076
36.66674 32.9193 153.85876 0.33148277 0.84160334 0.4264071
-36.66674 -31.9968 154.6 -0.29981524 -0.30285385 0.9046494
36.66674 -31.9968 154.6 0.29981557 -0.30285692 0.9046482
-36.66674 31.9968 154.6 -0.2998156 0.30285692 0.9046482
36.66674 31.9968 154.6 0.2998152 0.30285382 0.9046494
3 0 1 2
3 0 3 4
3 3 5 4
3 13 24 16
3 22 12 14
3 18 24 26
3 17 27 25
3 36 30 37
3 1 13 16
3 7 2 1
3 7 6 2
3 5 8 9
3 12 4 14
3 11 18 19
3 37 31 33
3 7 10 6
3 8 11 9
3 26 32 34
3 26 24 32
3 31 22 23
3 29 36 38
3 18 16 24
3 5 3 8
3 15 9 17
3 12 0 4
3 34 38 39
3 13 12 20
3 29 38 32
3 0 2 3
3 31 25 33
3 29 20 28
3 1 0 12
3 1 12 13
3 31 30 22
3 22 15 23
3 2 8 3
3 22 14 15
3 18 27 19
3 23 17 25
3 39 36 37
3 13 20 21
3 34 39 35
3 27 33 25
3 29 21 20
3 28 22 30
3 19 9 11
3 15 5 9
3 1 16 7
3 21 32 24
3 27 35 33
3 27 34 35
3 36 28 30
3 17 19 27
3 2 6 8
3 22 20 12
3 13 21 24
3 11 10 18
3 5 14 4
3 31 23 25
3 36 29 28
3 31 37 30
3 28 20 22
3 23 15 17
3 18 26 27
3 5 15 14
3 19 17 9
3 21 29 32
3 27 26 34
3 18 10 7
3 39 38 36
3 8 6 10
3 8 10 11
3 18 7 16
3 37 33 39
3 38 34 32
3 35 39 33
